<?xml version="1.0" encoding="utf-8"?>
<!-- Generator: Adobe Illustrator 26.1.0, SVG Export Plug-In . SVG Version: 6.00 Build 0)  -->
<svg version="1.1" id="Layer_1" xmlns="http://www.w3.org/2000/svg" xmlns:xlink="http://www.w3.org/1999/xlink" x="0px" y="0px"
	 viewBox="0 0 458.8 59.6" style="enable-background:new 0 0 458.8 59.6;" xml:space="preserve">
<style type="text/css">
	.st0{fill:#221F21;}
</style>
<g id="logo-group">
	<g id="logo-center">
		<g id="title">
			<path id="path205461" class="st0" d="M15.4,55.8c5,2.6,10.6,3.9,16.2,3.8c4.9,0.1,9.7-0.9,14.1-2.8c4.1-1.8,7.7-4.5,10.5-8
				l-10.3-9.3c-3.8,4.5-8.3,6.7-13.5,6.7c-2.9,0.1-5.8-0.6-8.3-2c-2.4-1.3-4.4-3.3-5.6-5.8c-2.6-5.4-2.6-11.7,0-17.1
				c1.3-2.4,3.2-4.5,5.7-5.8c2.6-1.3,5.4-2,8.3-2c5.2,0,9.8,2.3,13.5,6.7l10.3-9.4c-2.8-3.5-6.4-6.2-10.5-8C41.2,0.9,36.4,0,31.5,0
				c-5.6-0.1-11.2,1.2-16.2,3.8C10.7,6.2,6.8,9.9,4.1,14.4c-2.8,4.7-4.2,10-4.1,15.4c-0.1,5.4,1.3,10.7,4.1,15.4
				C6.8,49.7,10.7,53.4,15.4,55.8z"/>
			<path id="path205463" class="st0" d="M109.5,40.4c7.1-3.2,11.5-10.4,11.2-18.1c0.1-4-1-7.9-3.1-11.2c-2.2-3.2-5.3-5.8-8.8-7.3
				c-4.3-1.8-8.9-2.7-13.5-2.6H69.1v12.7h25.2c3.3,0,5.8,0.7,7.5,2.2c1.7,1.6,2.6,3.9,2.5,6.2c0.1,2.3-0.8,4.6-2.5,6.2
				c-1.7,1.5-4.2,2.1-7.5,2.1H69.1v27.8h16.2V43.2h8.8l10.4,15.2h17.4L109.5,40.4z"/>
			<path id="path205465" class="st0" d="M165.2,37.9l21.9-36.8h-15.7l-13.6,22.8L144.3,1.2h-17.1L149,37.7v20.8h16.2V37.9z"/>
			<path id="path205467" class="st0" d="M245.2,11.1c-2.2-3.2-5.3-5.8-8.9-7.3c-4.3-1.8-8.9-2.7-13.5-2.6h-26.2v12.7h25.2
				c3.3,0,5.8,0.7,7.5,2.2c1.7,1.6,2.6,3.9,2.5,6.2c0.1,2.3-0.8,4.6-2.5,6.2c-1.7,1.5-4.2,2.1-7.5,2.1h-25.2v27.8h16.2v-15h10
				c4.6,0.1,9.2-0.7,13.5-2.5c3.6-1.6,6.7-4.1,8.8-7.4c2.1-3.3,3.2-7.2,3.2-11.2C248.4,18.4,247.3,14.5,245.2,11.1z"/>
			<path id="path205469" class="st0" d="M272.6,14v44.5h16.2V14h17.5V1.2H255V14H272.6z"/>
			<path id="path205471" class="st0" d="M329.8,55.8c10.3,5.1,22.4,5.1,32.7,0c9.7-5,15.7-15,15.6-25.9c0.1-5.4-1.4-10.7-4.2-15.3
				c-2.8-4.5-6.7-8.2-11.4-10.7c-10.3-5.1-22.4-5.1-32.7,0c-4.7,2.5-8.6,6.1-11.4,10.6c-2.8,4.6-4.2,10-4,15.4
				C314.1,40.7,320.1,50.8,329.8,55.8L329.8,55.8z M354,44.1c-2.4,1.4-5.1,2.1-7.9,2c-2.8,0.1-5.5-0.6-7.9-2
				c-2.4-1.3-4.3-3.3-5.6-5.7c-2.7-5.4-2.7-11.7,0-17.1c1.3-2.4,3.2-4.4,5.6-5.8c2.4-1.3,5.1-2,7.9-2c2.7,0,5.5,0.7,7.9,2
				c2.3,1.4,4.2,3.4,5.6,5.8c2.7,5.4,2.7,11.7,0,17.1C358.3,40.8,356.3,42.8,354,44.1z"/>
			<path id="path205473" class="st0" d="M458.6,23l-14.8,26.5l0.1,8.9h14.9L458.6,23z M392.2,58.5h15v-7.9l-15-26.8V58.5z
				 M445.4,1.2l-19.7,33.1L405.5,1.2h-13.3l15,27.8l14.6,23.9h7.2l14.7-24.7l14.5-26.9L445.4,1.2z"/>
		</g>
	</g>
</g>
</svg>
