<svg id="Layer_1" data-name="Layer 1" xmlns="http://www.w3.org/2000/svg" viewBox="0 0 458.81 59.6"><defs><style>.cls-1{fill:#f8fbfe;}</style></defs><g id="logo-group"><g id="logo-center"><g id="title"><path id="path205461" class="cls-1" d="M32,127a33.88,33.88,0,0,0,16.2,3.76A34.53,34.53,0,0,0,62.33,128a26.74,26.74,0,0,0,10.48-8l-10.32-9.34c-3.76,4.51-8.27,6.72-13.51,6.72a16.65,16.65,0,0,1-8.35-2A13.69,13.69,0,0,1,35,109.58a19.65,19.65,0,0,1,0-17.11,14.3,14.3,0,0,1,5.65-5.81,17.52,17.52,0,0,1,8.35-2c5.24,0,9.75,2.29,13.51,6.71L72.81,82a28.33,28.33,0,0,0-10.48-8,35.89,35.89,0,0,0-14.17-2.79A33.81,33.81,0,0,0,32,75,28.47,28.47,0,0,0,20.74,85.59,28.92,28.92,0,0,0,16.65,101a28.7,28.7,0,0,0,4.09,15.39A28.07,28.07,0,0,0,32,127Z" transform="translate(-16.65 -71.18)"/><path id="path205463" class="cls-1" d="M126.16,111.63a19.13,19.13,0,0,0,11.21-18.1,20.38,20.38,0,0,0-3.11-11.21A20.66,20.66,0,0,0,125.42,75a32.85,32.85,0,0,0-13.51-2.62H85.72V85.1h25.21c3.28,0,5.81.74,7.53,2.21A8.07,8.07,0,0,1,121,93.53a7.94,7.94,0,0,1-2.54,6.22c-1.72,1.48-4.25,2.13-7.53,2.13H85.72v27.76h16.21V114.41h8.84l10.39,15.23h17.36Z" transform="translate(-16.65 -71.18)"/><path id="path205465" class="cls-1" d="M181.9,109.09l21.94-36.76H188.12L174.53,95.09,160.94,72.33H143.83l21.86,36.51v20.8H181.9Z" transform="translate(-16.65 -71.18)"/><path id="path205467" class="cls-1" d="M261.87,82.32A20.66,20.66,0,0,0,253,75a32.85,32.85,0,0,0-13.51-2.62H213.33V85.1h25.21c3.28,0,5.81.74,7.53,2.21a8.07,8.07,0,0,1,2.54,6.22,7.94,7.94,0,0,1-2.54,6.22c-1.72,1.48-4.25,2.13-7.53,2.13H213.33v27.76h16.21v-15h10A32.87,32.87,0,0,0,253,112.12a20.66,20.66,0,0,0,8.84-7.37A20,20,0,0,0,265,93.53,20.38,20.38,0,0,0,261.87,82.32Z" transform="translate(-16.65 -71.18)"/><path id="path205469" class="cls-1" d="M289.25,85.18v44.46h16.21V85.18H323V72.33H271.65V85.18Z" transform="translate(-16.65 -71.18)"/><path id="path205471" class="cls-1" d="M346.43,126.93a36.56,36.56,0,0,0,32.66,0A28.83,28.83,0,0,0,394.65,101a28.9,28.9,0,0,0-4.18-15.31A29.69,29.69,0,0,0,379.09,75a36.56,36.56,0,0,0-32.66,0,29.69,29.69,0,0,0-11.38,10.64A28.83,28.83,0,0,0,331,101a28.53,28.53,0,0,0,15.47,26Zm24.23-11.62a15.22,15.22,0,0,1-7.86,2,14.82,14.82,0,0,1-7.86-2,14,14,0,0,1-5.57-5.73,19,19,0,0,1,0-17.11,14.62,14.62,0,0,1,5.57-5.81,15.59,15.59,0,0,1,7.86-2,16,16,0,0,1,7.86,2,15.87,15.87,0,0,1,5.57,5.81,19,19,0,0,1,0,17.11A15.12,15.12,0,0,1,370.66,115.31Z" transform="translate(-16.65 -71.18)"/><path id="path205473" class="cls-1" d="M475.29,94.19l-14.81,26.52.08,8.93h14.9Zm-66.47,35.45h15v-7.95l-15-26.77ZM462,72.33,442.3,105.4,422.16,72.33H408.82l15,27.75L438.45,124h7.21l14.73-24.73,14.49-26.93Z" transform="translate(-16.65 -71.18)"/></g></g></g></svg>